<?xml version="1.0" encoding="UTF-8" standalone="no"?>
<svg
   viewBox="0 0 100 100"
   version="1.1"
   id="svg3"
   sodipodi:docname="compass.svg"
   inkscape:version="1.4.2 (ebf0e940d0, 2025-05-08)"
   xmlns:inkscape="http://www.inkscape.org/namespaces/inkscape"
   xmlns:sodipodi="http://sodipodi.sourceforge.net/DTD/sodipodi-0.dtd"
   xmlns="http://www.w3.org/2000/svg"
   xmlns:svg="http://www.w3.org/2000/svg">
  <defs
     id="defs3" />
  <sodipodi:namedview
     id="namedview3"
     pagecolor="#505050"
     bordercolor="#ffffff"
     borderopacity="1"
     inkscape:showpageshadow="0"
     inkscape:pageopacity="0"
     inkscape:pagecheckerboard="1"
     inkscape:deskcolor="#d1d1d1"
     inkscape:zoom="7.72"
     inkscape:cx="49.935233"
     inkscape:cy="50"
     inkscape:window-width="1920"
     inkscape:window-height="1000"
     inkscape:window-x="0"
     inkscape:window-y="0"
     inkscape:window-maximized="1"
     inkscape:current-layer="svg3" />
  <path
     transform="matrix(1, 0, 0, 1, 50, 50)"
     d="M 50 0 C 50 27.61423749153967 27.61423749153967 50 0 50 C -27.61423749153967 50 -50 27.61423749153967 -50 0 C -50 -27.61423749153967 -27.61423749153967 -49.99999999999999 0 -50 C 27.61423749153967 -50 50 -27.61423749153967 50 0 Z"
     fill="#333333"
     stroke="#FFFFFF"
     stroke-width="1.3281249999999996"
     class=""
     stroke-opacity="1"
     fill-opacity="1"
     id="path1"
     style="fill:#f6ffd5" />
  <path
     d="M 15 19.999998092651367 L 3.960788402986026e-14 -20.000001907348633 L -15.000000953674316 19.999998092651367 L 15 19.999998092651367 Z "
     stroke-width="1.8910698602567195"
     stroke="none"
     fill="#C7552E"
     transform="matrix(1, 0, 0, 1, 50, 30)"
     class=""
     fill-opacity="1"
     stroke-opacity="1"
     id="path2"
     style="fill:#800000" />
  <path
     d="M 15 19.999998092651367 L 3.960788402986026e-14 -20.000001907348633 L -15.000000953674316 19.999998092651367 L 15 19.999998092651367 Z "
     stroke-width="1.8910698602567195"
     stroke="none"
     fill="#FFFFFF"
     transform="matrix(-1, 1.22465e-16, -1.22465e-16, -1, 50, 70)"
     class=""
     fill-opacity="1"
     stroke-opacity="1"
     id="path3"
     style="fill:#2b0000" />
</svg>
